DataType=double
version=3
OpenSimVersion=4.5-2024-01-10-34fd6af
endheader
time	pelvis_tilt	pelvis_list	pelvis_rotation	pelvis_tx	pelvis_ty	pelvis_tz	hip_flexion_r	hip_adduction_r	hip_rotation_r	knee_angle_r	knee_adduction_r	knee_angle_r_beta	ankle_angle_r	subtalar_angle_r	mtp_angle_r	hip_flexion_l	hip_adduction_l	hip_rotation_l	knee_angle_l	knee_adduction_l	knee_angle_l_beta	ankle_angle_l	subtalar_angle_l	mtp_angle_l	lumbar_extension	lumbar_bending	lumbar_rotation	arm_flex_r	arm_add_r	arm_rot_r	elbow_flex_r	pro_sup_r	wrist_flex_r	wrist_dev_r	arm_flex_l	arm_add_l	arm_rot_l	elbow_flex_l	pro_sup_l	wrist_flex_l	wrist_dev_l
38.3	-0.133986579372332	0.09666932138081007	0.09647909307604025	1.060684304024269	0.9318289458287179	0.4327836684974973	0.6658502803745958	6.002615442517774	0.1193301214585028	0.3545536260752828	0.03879643	0.3545536260752828	0.03040251101595619	-0.4113733395406378	0.09699191938773113	6.289035613638547	6.356194322801562	-6.336490358659799	0.2072333511637116	0.09396746	0.2072333511637116	0.3192368725297908	-0.1218198701308567	-0.01637010440437734	-0.08765713398805203	-0.05580187301339742	-0.03642456845741429	-0.2783396253044723	-0.1584101109767612	-0.2594222159259719	0.4087470331825632	1.57079633	0	0	0.5658505960628037	-0.3171016841367684	-0.01545590807729193	1.454294271457911	1.57079633	0	0
38.31	-0.1289222535413253	0.09517255444949507	0.09145049467535384	1.06318109740819	0.9307769725572426	0.4355172813275976	0.6554426450778216	6.011623538604991	0.1184669779508373	0.3594557383937185	0.03879643	0.3594557383937185	0.00847227327141109	-0.4281512158174673	0.05770294487737576	6.275396135845408	6.348933615406178	-6.3482886724411	0.2122199312032413	0.09396746	0.2122199312032413	0.3319809692783506	-0.1085826590703031	-0.01346499593465172	-0.08880715157970913	-0.05533800594825064	-0.03012567111095423	-0.2984823714974776	-0.1552259280031028	-0.2552407820572125	0.4122188974678763	1.57079633	0	0	0.5693552959743008	-0.3165257253780403	-0.01956445970743498	1.476752187192095	1.57079633	0	0
38.32	-0.1238348214290083	0.09348770739836704	0.08658182746669989	1.065666332034759	0.9297523040776048	0.438241864149822	0.6452274261469044	6.020761767995085	0.1177964256973149	0.3649769524943562	0.03879643	0.3649769524943562	-0.01253608645557233	-0.4446797343262948	0.02071233013706647	6.262110034089696	6.341462418953135	-6.359701130138299	0.2178258751413102	0.09396746	0.2178258751413102	0.3439831014910866	-0.09619832723516558	-0.01246282849496518	-0.09005458694558244	-0.05468555318350897	-0.02405092369294532	-0.318055816049827	-0.1521221040944349	-0.2507890292950367	0.4154752611177616	1.57079633	0	0	0.5724649860487714	-0.315970157504348	-0.02383976652067831	1.499073492775832	1.57079633	0	0
38.33	-0.1187050606760039	0.09129899307175431	0.0820029596160282	1.068143968740418	0.9288036957815716	0.4409915619362547	0.6351917785427017	6.030326797858565	0.1173448837922967	0.3716613341919798	0.03879643	0.3716613341919798	-0.03150366942152205	-0.4605792060817011	-0.01212391735476775	6.249989313740553	6.333347438923656	-6.370199500664404	0.2258035958815631	0.09396746	0.2258035958815631	0.3540259353534378	-0.085976455573329	-0.01482088562242733	-0.0914594283836445	-0.05353631793546879	-0.01837459927477561	-0.3362466513755424	-0.149242444471695	-0.2458005885077442	0.4182607045538089	1.57079633	0	0	0.5743909966321575	-0.3153290517199362	-0.02854937092639579	1.52113502778408	1.57079633	0	0
38.34	-0.1135480526029626	0.08831165112448376	0.07781254892051509	1.070610789724315	0.9279743575241218	0.443794144956486	0.6253390711903863	6.040584362731035	0.1170839657170768	0.3799028346901147	0.03879643	0.3799028346901147	-0.04745952765035066	-0.4754641510787006	-0.03947870798473661	6.239818014058989	6.324198098901681	-6.379286032334349	0.2377740891662831	0.09396746	0.2377740891662831	0.3610436782626087	-0.0790685775208365	-0.02154405958529335	-0.0930432239378759	-0.05159385876050264	-0.01322572228838382	-0.3523112378655686	-0.1467296528051577	-0.2400945535237257	0.4203454050536435	1.57079633	0	0	0.5744323262930677	-0.3144856555895164	-0.03391606483856227	1.542789736241329	1.57079633	0	0
